<svg height="512" viewBox="0 0 128 128" width="512" xmlns="http://www.w3.org/2000/svg"><g id="Circle_Grid" data-name="Circle Grid"><circle cx="64" cy="64" fill="#ef5261" r="64"/></g><g id="icon"><circle cx="64.014" cy="63.994" fill="#eeefee" r="39.084"/><g fill="#2cbfae"><path d="m64 104.969a40.668 40.668 0 0 1 -28.959-11.985l-.56-.619a40.728 40.728 0 0 1 0-56.69v-.011l.56-.608a40.856 40.856 0 0 1 57.917 0l.56.619a40.728 40.728 0 0 1 0 56.69v.011l-.56.608a40.668 40.668 0 0 1 -28.958 11.985zm-25.716-14.129a37.188 37.188 0 0 0 51.516-.08l.474-.517a36.942 36.942 0 0 0 0-52.448l-.56-.6a37.056 37.056 0 0 0 -51.517.08l-.474.517a36.942 36.942 0 0 0 0 52.448z"/><path d="m64 49.78a40.668 40.668 0 0 1 -28.959-11.98l-.56-.557v-1.579l.56-.608a40.856 40.856 0 0 1 57.917 0l.56.557v1.627l-.56.557a40.668 40.668 0 0 1 -28.958 11.983zm-24.888-13.354a37.2 37.2 0 0 0 49.776 0 37.051 37.051 0 0 0 -49.776 0z"/><path d="m64 104.969a40.668 40.668 0 0 1 -28.959-11.985l-.56-.557v-1.57l.554-.608a40.856 40.856 0 0 1 57.929 0l.554.557v1.622l-.56.557a40.668 40.668 0 0 1 -28.958 11.984zm-24.893-13.361a37.2 37.2 0 0 0 49.787 0 37.082 37.082 0 0 0 -49.787 0z"/><path d="m64 104.98c-12.019 0-21.439-18-21.439-40.974s9.42-40.972 21.439-40.972 21.439 18 21.439 40.971-9.42 40.975-21.439 40.975zm0-78.143c-9.563 0-17.637 17.02-17.637 37.169s8.074 37.171 17.637 37.171 17.637-17.022 17.637-37.171-8.074-37.169-17.637-37.169z"/><path d="m24.93 62.093h78.169v3.803h-78.169z"/><path d="m62.11 24.91h3.803v78.169h-3.803z"/></g></g></svg>