<?xml version="1.0" ?><!DOCTYPE svg  PUBLIC '-//W3C//DTD SVG 1.1//EN'  'http://www.w3.org/Graphics/SVG/1.1/DTD/svg11.dtd'><svg enable-background="new 0 0 64 64" height="64px" id="Layer_1" version="1.1" viewBox="0 0 64 64" width="64px" xml:space="preserve" xmlns="http://www.w3.org/2000/svg" xmlns:xlink="http://www.w3.org/1999/xlink"><g><path d="M32,1C14.951,1,1,14.95,1,32c0,17.049,13.951,31,31,31c17.05,0,31-13.951,31-31C63,14.95,49.206,1,32,1z    M46.259,45.794c-0.617,0.931-1.703,1.241-2.634,0.62c-7.285-4.495-16.431-5.424-27.278-2.943   c-1.088,0.308-2.016-0.467-2.326-1.396c-0.311-1.085,0.465-2.016,1.395-2.325c11.779-2.635,22.01-1.55,30.07,3.41   C46.569,43.625,46.726,44.865,46.259,45.794z M49.98,37.27c-0.774,1.085-2.171,1.549-3.255,0.774   c-8.37-5.114-21.08-6.665-30.846-3.564c-1.238,0.31-2.635-0.311-2.945-1.55c-0.31-1.24,0.311-2.636,1.551-2.946   C25.8,26.575,39.75,28.278,49.36,34.169C50.29,34.634,50.755,36.185,49.98,37.27z M54.319,27.814   c-0.773,1.084-2.635,1.551-4.029,0.773c-9.92-5.888-26.504-6.508-35.959-3.564c-1.552,0.467-3.101-0.464-3.564-1.859   c-0.467-1.549,0.464-3.1,1.858-3.564c11.005-3.254,29.142-2.637,40.61,4.186C54.63,24.56,55.097,26.419,54.319,27.814z" fill="#37D660"/><path d="M32,1C14.951,1,1,14.95,1,32c0,17.049,13.951,31,31,31c17.05,0,31-13.951,31-31C63,14.95,49.206,1,32,1z    M46.259,45.794c-0.617,0.931-1.703,1.241-2.634,0.62c-7.285-4.495-16.431-5.424-27.278-2.943   c-1.088,0.308-2.016-0.467-2.326-1.396c-0.311-1.085,0.465-2.016,1.395-2.325c11.779-2.635,22.01-1.55,30.07,3.41   C46.569,43.625,46.726,44.865,46.259,45.794z M49.98,37.27c-0.774,1.085-2.171,1.549-3.255,0.774   c-8.37-5.114-21.08-6.665-30.846-3.564c-1.238,0.31-2.635-0.311-2.945-1.55c-0.31-1.24,0.311-2.636,1.551-2.946   C25.8,26.575,39.75,28.278,49.36,34.169C50.29,34.634,50.755,36.185,49.98,37.27z M54.319,27.814   c-0.773,1.084-2.635,1.551-4.029,0.773c-9.92-5.888-26.504-6.508-35.959-3.564c-1.552,0.467-3.101-0.464-3.564-1.859   c-0.467-1.549,0.464-3.1,1.858-3.564c11.005-3.254,29.142-2.637,40.61,4.186C54.63,24.56,55.097,26.419,54.319,27.814z" fill="#37D660"/><path d="M28.46,25.412c-11.869,0-22.145,4.447-27.146,10.931C3.442,51.354,16.423,63,32,63   c11.252,0,21.151-6.078,26.583-15.109c0.174-0.857,0.271-1.73,0.271-2.619C58.854,34.303,45.247,25.412,28.46,25.412z    M46.259,45.794c-0.617,0.931-1.703,1.241-2.634,0.62c-7.285-4.495-16.431-5.424-27.278-2.943   c-1.088,0.308-2.016-0.467-2.326-1.396c-0.311-1.085,0.465-2.016,1.395-2.325c11.779-2.635,22.01-1.55,30.07,3.41   C46.569,43.625,46.726,44.865,46.259,45.794z M49.98,37.27c-0.774,1.085-2.171,1.549-3.255,0.774   c-8.37-5.114-21.08-6.665-30.846-3.564c-1.238,0.31-2.635-0.311-2.945-1.55c-0.31-1.24,0.311-2.636,1.551-2.946   C25.8,26.575,39.75,28.278,49.36,34.169C50.29,34.634,50.755,36.185,49.98,37.27z" fill="#2CC64D"/><g><path d="M32,5.602c16.423,0,29.726,12.71,30.906,28.692C62.962,33.536,63,32.771,63,32C63,14.95,49.206,1,32,1    C14.951,1,1,14.95,1,32c0,0.773,0.038,1.541,0.095,2.301C2.284,18.314,15.726,5.602,32,5.602z" fill="#5AF27A"/><path d="M41.774,61.402c1.811-4.17,4.086-10.406,4.484-11.007c0.467-0.929,0.311-2.169-0.773-2.634    c-8.061-4.96-18.291-6.045-30.07-3.41c-0.93,0.31-1.705,1.24-1.395,2.325c0.156,0.47,0.814,6.136,1.566,11.579    C20.354,61.256,25.981,63,32,63C35.413,63,38.696,62.433,41.774,61.402z" fill="#1DAA59"/></g></g></svg>